<?xml version="1.0" standalone="no"?>
<!DOCTYPE svg PUBLIC "-//W3C//DTD SVG 20010904//EN"
 "http://www.w3.org/TR/2001/REC-SVG-20010904/DTD/svg10.dtd">
<svg version="1.0" xmlns="http://www.w3.org/2000/svg"
 width="600.000000pt" height="137.000000pt" viewBox="0 0 600.000000 137.000000"
 preserveAspectRatio="xMidYMid meet">
<metadata>
Created by potrace 1.12, written by Peter Selinger 2001-2015
</metadata>
<g transform="translate(0.000000,137.000000) scale(0.100000,-0.100000)"
fill="#000000" stroke="none">
<path d="M0 710 l0 -660 913 0 912 0 290 290 290 290 1797 0 1798 0 0 370 0
370 -3000 0 -3000 0 0 -660z m952 418 c88 -43 150 -94 194 -164 100 -156 100
-352 0 -508 -45 -70 -106 -121 -196 -165 -73 -35 -78 -36 -190 -36 -112 0
-117 1 -190 36 -90 44 -151 95 -196 165 -50 78 -74 160 -74 254 0 179 92 330
253 411 80 41 118 49 229 45 86 -3 104 -6 170 -38z m983 -13 c14 -13 25 -36
25 -50 0 -36 -42 -75 -80 -75 -38 0 -80 39 -80 75 0 36 42 75 80 75 19 0 40
-9 55 -25z m1945 -165 c15 -16 36 -30 45 -30 9 0 30 14 45 30 26 28 33 30 95
30 l67 0 -7 -32 c-28 -127 -159 -200 -273 -152 -66 27 -112 82 -127 152 l-7
32 67 0 c62 0 69 -2 95 -30z"/>
</g>
</svg>
